/* XPM */
static char * product_logo_32_xpm[] = {
"32 32 705 2",
"  	c None",
". 	c #345C7D",
"+ 	c #2F6189",
"@ 	c #306996",
"# 	c #316F9F",
"$ 	c #2F6EA1",
"% 	c #306DA1",
"& 	c #346EA2",
"* 	c #3F73A2",
"= 	c #4C79A4",
"- 	c #677987",
"; 	c #7391A6",
"> 	c #4C82A8",
", 	c #3176AC",
"' 	c #2A78B4",
") 	c #297CBB",
"! 	c #297DBE",
"~ 	c #2A7EC1",
"{ 	c #2C80C2",
"] 	c #3082C3",
"^ 	c #3A85C3",
"/ 	c #4D89C1",
"( 	c #608EBE",
"_ 	c #5D8AB7",
": 	c #5483B0",
"< 	c #919EA9",
"[ 	c #8EAFC8",
"} 	c #5D97C7",
"| 	c #2F7DBC",
"1 	c #3283C2",
"2 	c #418CC5",
"3 	c #5396C8",
"4 	c #639ECB",
"5 	c #6AA3CE",
"6 	c #66A2CF",
"7 	c #599DD0",
"8 	c #4C98D2",
"9 	c #509AD6",
"0 	c #85B4DF",
"a 	c #ACC6E2",
"b 	c #88ADD3",
"c 	c #568DC0",
"d 	c #536475",
"e 	c #9EADB8",
"f 	c #9ABEDA",
"g 	c #478BC4",
"h 	c #3982BE",
"i 	c #679CC6",
"j 	c #96B5CB",
"k 	c #BCC9D1",
"l 	c #CFD4D5",
"m 	c #D7D9D8",
"n 	c #DADCDB",
"o 	c #DCDEDD",
"p 	c #D9DDDE",
"q 	c #C9D6DE",
"r 	c #A6C6DD",
"s 	c #81B5DD",
"t 	c #8FC0E6",
"u 	c #BED9F0",
"v 	c #A4C7E5",
"w 	c #5595CD",
"x 	c #478CC3",
"y 	c #4C6176",
"z 	c #A0B1C0",
"A 	c #9BBFDD",
"B 	c #4187C0",
"C 	c #5B92BF",
"D 	c #9EB7C9",
"E 	c #CCD0D0",
"F 	c #CCD0D1",
"G 	c #B0C2CE",
"H 	c #94B5CD",
"I 	c #82ADCD",
"J 	c #7DACCF",
"K 	c #86B2D2",
"L 	c #9EBED6",
"M 	c #C1D1DD",
"N 	c #E3E5E5",
"O 	c #E6E8E8",
"P 	c #B8D2E4",
"Q 	c #92C2E5",
"R 	c #9ACAEE",
"S 	c #77B5E6",
"T 	c #3F93D5",
"U 	c #4792CF",
"V 	c #3E5A76",
"W 	c #88A1B8",
"X 	c #93BBDB",
"Y 	c #4185BD",
"Z 	c #739DC0",
"` 	c #BEC6CB",
" .	c #C9CDCE",
"..	c #92B1C7",
"+.	c #5996C5",
"@.	c #3186C7",
"#.	c #2382CB",
"$.	c #308ACE",
"%.	c #3F92D1",
"&.	c #308BD1",
"*.	c #2588D2",
"=.	c #3790D3",
"-.	c #67A7D8",
";.	c #ABC9E0",
">.	c #EAECEB",
",.	c #DDE7EB",
"'.	c #94C5E7",
").	c #5BACE7",
"!.	c #419EE3",
"~.	c #3693DB",
"{.	c #4D7BA2",
"].	c #73ABD7",
"^.	c #3981BD",
"/.	c #769EBE",
"(.	c #C7CBCC",
"_.	c #B1C0C9",
":.	c #659BC4",
"<.	c #2981C5",
"[.	c #1E82CC",
"}.	c #1E83D0",
"|.	c #4494D2",
"1.	c #A4C3D9",
"2.	c #CED8DF",
"3.	c #A5C4DB",
"4.	c #4496D5",
"5.	c #208BDA",
"6.	c #218CDC",
"7.	c #3192DA",
"8.	c #7AB5E0",
"9.	c #D6E3EB",
"0.	c #EBF0F1",
"a.	c #91C5EA",
"b.	c #3DA0E7",
"c.	c #2E98E6",
"d.	c #3696DF",
"e.	c #3D668C",
"f.	c #77A2C8",
"g.	c #5C9ED2",
"h.	c #6795BB",
"i.	c #C2C7C9",
"j.	c #ABBCC8",
"k.	c #5291C2",
"l.	c #207FC8",
"m.	c #1F83CE",
"n.	c #1E84CF",
"o.	c #2285D1",
"p.	c #83B2D6",
"q.	c #E4E2E0",
"r.	c #E8E5E2",
"s.	c #E8E6E3",
"t.	c #84B3D7",
"u.	c #238BD9",
"v.	c #218EDF",
"w.	c #2390E1",
"x.	c #2791E0",
"y.	c #67AFE3",
"z.	c #D1E4EE",
"A.	c #E7F1F4",
"B.	c #7CBDEB",
"C.	c #2E9CEB",
"D.	c #2B98E9",
"E.	c #3F9DE3",
"F.	c #355275",
"G.	c #6F90B1",
"H.	c #AFCEE5",
"I.	c #6096C2",
"J.	c #ADBAC3",
"K.	c #B7C2C8",
"L.	c #5693C1",
"M.	c #207FC7",
"N.	c #1F82CD",
"O.	c #1F83CF",
"P.	c #1E84D0",
"Q.	c #8AB5D6",
"R.	c #E5E4E0",
"S.	c #E8E6E2",
"T.	c #E9E7E4",
"U.	c #8AB6D7",
"V.	c #248CDA",
"W.	c #228FE0",
"X.	c #2391E3",
"Y.	c #2593E5",
"Z.	c #2995E5",
"`.	c #70B6E9",
" +	c #E2EFF6",
".+	c #CFE5F4",
"++	c #52ABEB",
"@+	c #2A9DEF",
"#+	c #349EED",
"$+	c #3B5A7C",
"%+	c #B0C3D5",
"&+	c #93BBDA",
"*+	c #82A2BD",
"=+	c #C8CAC9",
"-+	c #719EC1",
";+	c #217DC4",
">+	c #1F81CB",
",+	c #1F83CD",
"'+	c #1F84D0",
")+	c #1F84D1",
"!+	c #529BD1",
"~+	c #B9CDDA",
"{+	c #DEE0E1",
"]+	c #BACDDB",
"^+	c #529CD3",
"/+	c #208CDD",
"(+	c #2492E4",
"_+	c #2695E6",
":+	c #2998E9",
"<+	c #319CEA",
"[+	c #95CAF0",
"}+	c #F6F9FB",
"|+	c #9ACCF1",
"1+	c #2F9FEF",
"2+	c #31A2F4",
"3+	c #4EADF1",
"4+	c #6E87A0",
"5+	c #D5E4EF",
"6+	c #73A2C8",
"7+	c #B1BAC2",
"8+	c #A5B7C4",
"9+	c #3482BF",
"0+	c #1F80C9",
"a+	c #1E83CF",
"b+	c #358ED2",
"c+	c #3B90D1",
"d+	c #5A9DD0",
"e+	c #71A7D0",
"f+	c #599DD1",
"g+	c #2289D7",
"h+	c #2390E2",
"i+	c #2593E4",
"j+	c #2896E8",
"k+	c #2B9AEB",
"l+	c #2F9EEF",
"m+	c #51ADEF",
"n+	c #D3E8F8",
"o+	c #DAEBF7",
"p+	c #51AEF0",
"q+	c #2EA3F6",
"r+	c #47B0F8",
"s+	c #3C536E",
"t+	c #97B1C7",
"u+	c #9FC5E0",
"v+	c #7099BA",
"w+	c #C5C6C5",
"x+	c #729DBF",
"y+	c #1F7BC3",
"z+	c #1E80CA",
"A+	c #1E81CB",
"B+	c #1E82CD",
"C+	c #2887D0",
"D+	c #95BBD7",
"E+	c #C9D5DD",
"F+	c #CCD7DF",
"G+	c #CED9E0",
"H+	c #B6CDDE",
"I+	c #3D95D8",
"J+	c #228EE0",
"K+	c #2491E3",
"L+	c #2594E6",
"M+	c #2D9CED",
"N+	c #32A1F2",
"O+	c #39A5F4",
"P+	c #9DD0F6",
"Q+	c #F4F8FB",
"R+	c #82C4F4",
"S+	c #2FA5F8",
"T+	c #3FB0FA",
"U+	c #5EBBF5",
"V+	c #4D6A83",
"W+	c #7CA5C6",
"X+	c #4C8CBE",
"Y+	c #89A4B9",
"Z+	c #C0C3C6",
"`+	c #4A8ABD",
" @	c #1D7DC6",
".@	c #1E7FC9",
"+@	c #1E83CE",
"@@	c #2586CF",
"#@	c #7BACD2",
"$@	c #B5C9D7",
"%@	c #E6E4E2",
"&@	c #EBE8E5",
"*@	c #D2DBE2",
"=@	c #4096D7",
"-@	c #228FE1",
";@	c #2796E7",
">@	c #309FF0",
",@	c #34A3F4",
"'@	c #3AA8F8",
")@	c #74C1F8",
"!@	c #EFF6FB",
"~@	c #ADD8F7",
"{@	c #37A8F9",
"]@	c #3CADFA",
"^@	c #5ABBF7",
"/@	c #3F6282",
"(@	c #417AAB",
"_@	c #3677AD",
":@	c #A4B3BE",
"<@	c #B1BCC4",
"[@	c #3280BD",
"}@	c #1C7DC6",
"|@	c #2081CB",
"1@	c #2585CE",
"2@	c #5D9FD0",
"3@	c #DFE0E1",
"4@	c #EBE9E5",
"5@	c #D2DCE2",
"6@	c #2290E1",
"7@	c #2897E8",
"8@	c #2C9BEC",
"9@	c #37A6F7",
"0@	c #3DABFA",
"a@	c #5EBAFB",
"b@	c #E0F0FC",
"c@	c #CCE6F9",
"d@	c #47AFF9",
"e@	c #39AAFA",
"f@	c #56BBF8",
"g@	c #2F5276",
"h@	c #2C6CA1",
"i@	c #3D7CAF",
"j@	c #B1BAC1",
"k@	c #A6B7C3",
"l@	c #287CBE",
"m@	c #1D7EC7",
"n@	c #2281CA",
"o@	c #2483CC",
"p@	c #2283CE",
"q@	c #1E84D2",
"r@	c #569ED4",
"s@	c #DEE0E2",
"t@	c #D3DCE2",
"u@	c #2290E2",
"v@	c #2594E5",
"w@	c #2E9DEE",
"x@	c #33A2F3",
"y@	c #39A8F8",
"z@	c #40AEFC",
"A@	c #56B9FC",
"B@	c #D5ECFC",
"C@	c #D9ECFA",
"D@	c #53B6FA",
"E@	c #36A8FB",
"F@	c #53B8F9",
"G@	c #26496C",
"H@	c #2D6DA3",
"I@	c #3F7EB0",
"J@	c #B5BDC3",
"K@	c #287DBF",
"L@	c #217FC8",
"M@	c #2784CB",
"N@	c #2986CD",
"O@	c #2786CE",
"P@	c #2485D0",
"Q@	c #2084D1",
"R@	c #559DD4",
"S@	c #4096D8",
"T@	c #2694E6",
"U@	c #2A99EA",
"V@	c #35A4F4",
"W@	c #3BA9F9",
"X@	c #42B0FC",
"Y@	c #57BAFC",
"Z@	c #D3ECFC",
"`@	c #DCEEFB",
" #	c #5ABBFB",
".#	c #37A8FB",
"+#	c #51B7FA",
"@#	c #254466",
"##	c #2F6FA4",
"$#	c #3F81B3",
"%#	c #B1BDC3",
"&#	c #AEBDC6",
"*#	c #2F80BF",
"=#	c #2180C9",
"-#	c #2785CB",
";#	c #2C88CF",
">#	c #2C8AD0",
",#	c #2989D1",
"'#	c #2386D2",
")#	c #1F85D2",
"!#	c #2A99EB",
"~#	c #35A4F5",
"{#	c #3BAAFA",
"]#	c #5DBDFC",
"^#	c #DBEFFC",
"/#	c #D5EBFA",
"(#	c #59BBFB",
"_#	c #3AAAFC",
":#	c #53B8FA",
"<#	c #233E5C",
"[#	c #306EA1",
"}#	c #3E84B7",
"|#	c #A3B6C3",
"1#	c #BFC6C8",
"2#	c #4088BF",
"3#	c #1F7FC8",
"4#	c #2483CB",
"5#	c #2A88CE",
"6#	c #2E8BD1",
"7#	c #2D8BD2",
"8#	c #2688D2",
"9#	c #549CD3",
"0#	c #3F96D7",
"a#	c #2B99EB",
"b#	c #3AA9FA",
"c#	c #41B0FC",
"d#	c #6DC3FC",
"e#	c #E9F4FC",
"f#	c #C3E3FA",
"g#	c #51B8FB",
"h#	c #3BAAFC",
"i#	c #58BBF9",
"j#	c #213851",
"k#	c #2F6A9A",
"l#	c #3E86BA",
"m#	c #88AAC2",
"n#	c #CDCDCA",
"o#	c #6297C1",
"p#	c #1E7DC6",
"q#	c #2081CA",
"r#	c #2584CD",
"s#	c #2A88D0",
"t#	c #2C8AD2",
"u#	c #2586D1",
"v#	c #1D82D1",
"w#	c #519AD2",
"x#	c #DDDFE0",
"y#	c #EBE7E4",
"z#	c #D3DBE2",
"A#	c #3F95D7",
"B#	c #2795E6",
"C#	c #38A8F8",
"D#	c #3FADFC",
"E#	c #8CCEFB",
"F#	c #F4F9FC",
"G#	c #A2D4F8",
"H#	c #47B2FC",
"I#	c #3DACFC",
"J#	c #5FBDF7",
"K#	c #213145",
"L#	c #2B5D8A",
"M#	c #3D85BA",
"N#	c #6498BF",
"O#	c #C6C8C9",
"P#	c #93AEC4",
"Q#	c #267EC2",
"R#	c #2485CF",
"S#	c #2083CF",
"T#	c #1A81D0",
"U#	c #4E98D2",
"V#	c #DBDDDF",
"W#	c #EAE7E3",
"X#	c #D3DBE1",
"Y#	c #3E94D6",
"Z#	c #218EE0",
"`#	c #2D9BEB",
" $	c #2F9DEE",
".$	c #31A0F1",
"+$	c #36A6F7",
"@$	c #46AEF9",
"#$	c #BCE0FB",
"$$	c #EDF4FB",
"%$	c #77C0F7",
"&$	c #3EADFC",
"*$	c #43AFFB",
"=$	c #254D71",
"-$	c #397DB2",
";$	c #458ABD",
">$	c #A0B5C3",
",$	c #C3C7C9",
"'$	c #5693C2",
")$	c #1C7DC7",
"!$	c #1F81CC",
"~$	c #1E81CD",
"{$	c #1C81CE",
"]$	c #187FCF",
"^$	c #4D96D0",
"/$	c #DADCDE",
"($	c #E9E5E2",
"_$	c #D2DAE0",
":$	c #3D93D5",
"<$	c #1F8DDF",
"[$	c #2A98E9",
"}$	c #2E9EEF",
"|$	c #33A3F4",
"1$	c #76C1F7",
"2$	c #ECF5FB",
"3$	c #BFDDF5",
"4$	c #4CADF7",
"5$	c #38AAFD",
"6$	c #4DB5FA",
"7$	c #243E5A",
"8$	c #2F6B9D",
"9$	c #3985BD",
"0$	c #6FA0C3",
"a$	c #C8CACB",
"b$	c #9CB3C7",
"c$	c #3383C2",
"d$	c #1B7DC9",
"e$	c #1E80CB",
"f$	c #1C80CC",
"g$	c #1A7FCD",
"h$	c #1E80CD",
"i$	c #5398CF",
"j$	c #D8DADC",
"k$	c #E7E3E1",
"l$	c #D0D8DF",
"m$	c #4495D4",
"n$	c #238DDD",
"o$	c #208FE2",
"p$	c #2493E5",
"q$	c #2796E9",
"r$	c #2B9BED",
"s$	c #4CABF0",
"t$	c #C1E0F8",
"u$	c #ECF3F9",
"v$	c #7ABCF0",
"w$	c #35A4F9",
"x$	c #3BADFC",
"y$	c #5BBBF7",
"z$	c #235078",
"A$	c #2D74AC",
"B$	c #468EC3",
"C$	c #97B5C9",
"D$	c #D4D1CF",
"E$	c #85A9C6",
"F$	c #2B80C4",
"G$	c #1D7FCB",
"H$	c #1C7FCC",
"I$	c #1F80CB",
"J$	c #72A6D0",
"K$	c #AFC3D5",
"L$	c #E1DDDD",
"M$	c #E6E2DF",
"N$	c #E2E0E1",
"O$	c #AFC9DD",
"P$	c #71ADDC",
"Q$	c #218CDD",
"R$	c #2190E3",
"S$	c #2493E6",
"T$	c #3CA0EA",
"U$	c #A5D2F4",
"V$	c #F7F9FB",
"W$	c #A1CCEE",
"X$	c #399FEF",
"Y$	c #2FA4F9",
"Z$	c #49B6F9",
"`$	c #25415D",
" %	c #225D8F",
".%	c #347EB6",
"+%	c #5B9BC8",
"@%	c #AABFCC",
"#%	c #D3D2D0",
"$%	c #89ACC8",
"%%	c #3888C7",
"&%	c #197CCA",
"*%	c #1E7FCB",
"=%	c #8BB1CF",
"-%	c #C5CDD5",
";%	c #C7CED7",
">%	c #C8D0D8",
",%	c #C9D2DB",
"'%	c #CBD5DE",
")%	c #87B4D8",
"!%	c #208ADA",
"~%	c #1F8EE1",
"{%	c #439FE5",
"]%	c #A3CFEE",
"^%	c #F5F8F9",
"/%	c #B5D5EE",
"(%	c #47A1E7",
"_%	c #299CF4",
":%	c #3AAEF9",
"<%	c #5ABBF4",
"[%	c #254A6C",
"}%	c #24669C",
"|%	c #3682BC",
"1%	c #5F9DC8",
"2%	c #A7BECC",
"3%	c #D5D3D1",
"4%	c #A4BACC",
"5%	c #5A97C7",
"6%	c #237FC7",
"7%	c #2B81C7",
"8%	c #3485C7",
"9%	c #3586C9",
"0%	c #3487CB",
"a%	c #3387CD",
"b%	c #3389CE",
"c%	c #2A88D2",
"d%	c #2A8EDA",
"e%	c #6AAEE2",
"f%	c #BED7EB",
"g%	c #F5F5F3",
"h%	c #B3D3EA",
"i%	c #4CA1E3",
"j%	c #2597EE",
"k%	c #32A7F7",
"l%	c #4DB8F4",
"m%	c #273A52",
"n%	c #224F77",
"o%	c #2369A2",
"p%	c #3382BC",
"q%	c #5095C6",
"r%	c #90B1C9",
"s%	c #C9CCCF",
"t%	c #CDCFD1",
"u%	c #A2BACD",
"v%	c #74A4CC",
"w%	c #5496CC",
"x%	c #418ECE",
"y%	c #3B8DD0",
"z%	c #4090D2",
"A%	c #559BD5",
"B%	c #7BAFDA",
"C%	c #B2CCE2",
"D%	c #E5E7EA",
"E%	c #E1E7EA",
"F%	c #9AC5E4",
"G%	c #429CE1",
"H%	c #2395EB",
"I%	c #44B1F6",
"J%	c #294059",
"K%	c #21517B",
"L%	c #2168A2",
"M%	c #2C7CB9",
"N%	c #3988C3",
"O%	c #639BC5",
"P%	c #99B3C8",
"Q%	c #C4C9CF",
"R%	c #D6D4D4",
"S%	c #D5D4D6",
"T%	c #CFD2D8",
"U%	c #CDD2DA",
"V%	c #D2D6DC",
"W%	c #DEDCDF",
"X%	c #E4E1E2",
"Y%	c #D4DAE1",
"Z%	c #A5C4DD",
"`%	c #67ABDD",
" &	c #3095E1",
".&	c #2797EB",
"+&	c #2EA1F4",
"@&	c #40ADF5",
"#&	c #2B435D",
"$&	c #24517B",
"%&	c #1E639C",
"&&	c #2172B2",
"*&	c #257BBD",
"=&	c #2D7FC0",
"-&	c #478BC1",
";&	c #689AC4",
">&	c #86A9C9",
",&	c #9EB7CF",
"'&	c #AAC1D6",
")&	c #AAC3DA",
"!&	c #94B8D6",
"~&	c #71A7D2",
"{&	c #4C98D4",
"]&	c #3293DB",
"^&	c #2E98E5",
"/&	c #2F9DED",
"(&	c #41A7EE",
"_&	c #295278",
":&	c #205D91",
"<&	c #1E6BA9",
"[&	c #2074B8",
"}&	c #2984CA",
"|&	c #2B86CE",
"1&	c #328DD3",
"2&	c #3C96DB",
"3&	c #3A95DA",
"4&	c #2D8DD6",
"5&	c #288CD8",
"6&	c #2E94E0",
"7&	c #329BE6",
"8&	c #349EEA",
"9&	c #3BA1EB",
"0&	c #45A3E6",
"a&	c #2E5E8A",
"b&	c #28679D",
"c&	c #2873B1",
"d&	c #3285C7",
"e&	c #459CDB",
"f&	c #50A9E5",
"g&	c #48A4E4",
"h&	c #3E9DE1",
"i&	c #41A1E5",
"j&	c #45A5E8",
"k&	c #41A2E6",
"l&	c #409FE1",
"m&	c #479FDC",
"n&	c #39658E",
"o&	c #39709F",
"p&	c #4181B3",
"q&	c #4A90C5",
"r&	c #4B96CF",
"s&	c #509DD8",
"t&	c #59A6DE",
"u&	c #5DA7DB",
"v&	c #5AA4D4",
"                                                                ",
"                        . + @ # $ % & * =                       ",
"                  - ; > , ' ) ! ~ { ] ^ / ( _ :                 ",
"                < [ } | 1 2 3 4 5 6 7 8 9 0 a b c               ",
"            d e f g h i j k l m n o p q r s t u v w x           ",
"          y z A B C D E F G H I J K L M N O P Q R S T U         ",
"        V W X Y Z `  ...+.@.#.$.%.&.*.=.-.;.>.,.'.).!.~.        ",
"        {.].^./.(._.:.<.[.}.|.1.2.3.4.5.6.7.8.9.0.a.b.c.d.      ",
"      e.f.g.h.i.j.k.l.m.n.o.p.q.r.s.t.u.v.w.x.y.z.A.B.C.D.E.    ",
"    F.G.H.I.J.K.L.M.N.O.P.o.Q.R.S.T.U.V.W.X.Y.Z.`. +.+++@+#+    ",
"    $+%+&+*+=+-+;+>+,+O.'+)+!+~+{+]+^+/+w.(+_+:+<+[+}+|+1+2+3+  ",
"    4+5+6+7+8+9+0+>+N.a+'+b+c+d+e+f+g+v.h+i+j+k+l+m+n+o+p+q+r+  ",
"  s+t+u+v+w+x+y+z+A+B+a+C+D+E+F+G+H+I+J+K+L+:+M+N+O+P+Q+R+S+T+U+",
"  V+W+X+Y+Z+`+ @.@A+B++@@@#@$@%@&@*@=@-@(+;@k+>@,@'@)@!@~@{@]@^@",
"  /@(@_@:@<@[@}@.@|@N.a+}.1@2@3@4@5@=@6@Y.7@8@N+9@0@a@b@c@d@e@f@",
"  g@h@i@j@k@l@m@n@o@p@O.}.q@r@s@4@t@=@u@v@:+w@x@y@z@A@B@C@D@E@F@",
"  G@H@I@J@8+K@L@M@N@O@P@Q@q@R@{+4@t@S@u@T@U@l+V@W@X@Y@Z@`@ #.#+#",
"  @###$#%#&#*#=#-#;#>#,#'#)#R@{+&@t@=@6@T@!#l+~#{#X@]#^#/#(#_#:#",
"  <#[#}#|#1#2#3#4#5#6#7#8#)#9#{+&@t@0#6@T@a#l+,@b#c#d#e#f#g#h#i#",
"  j#k#l#m#n#o#p#q#r#s#t#u#v#w#x#y#z#A#-@B#k+l+x@C#D#E#F#G#H#I#J#",
"  K#L#M#N#O#P#Q#.@|@p@R#S#T#U#V#W#X#Y#Z#B#`# $.$+$@$#$$$%$&$*$  ",
"    =$-$;$>$,$'$)$z+!$~${$]$^$/$($_$:$<$(+[$8@}$|$1$2$3$4$5$6$  ",
"    7$8$9$0$a$b$c$d$e$f$g$h$i$j$k$l$m$n$o$p$q$r$s$t$u$v$w$x$y$  ",
"      z$A$B$C$D$E$F$G$H$I$J$K$L$M$N$O$P$Q$R$S$T$U$V$W$X$Y$Z$    ",
"      `$ %.%+%@%#%$%%%&%*%=%-%;%>%,%'%)%!%~%{%]%^%/%(%_%:%<%    ",
"        [%}%|%1%2%3%4%5%6%7%8%9%0%a%b%c%d%e%f%g%h%i%j%k%l%      ",
"        m%n%o%p%q%r%s%t%u%v%w%x%y%z%A%B%C%D%E%F%G%H%q+I%        ",
"          J%K%L%M%N%O%P%Q%R%S%T%U%V%W%X%Y%Z%`% &.&+&@&          ",
"            #&$&%&&&*&=&-&;&>&,&'&)&!&~&{&]&^&/&N+(&            ",
"                _&:&<&[&Q#}&|&1&2&3&4&5&6&7&8&9&0&              ",
"                    a&b&c&d&e&f&g&h&i&j&k&l&m&                  ",
"                        n&o&p&q&r&s&t&u&v&                      "};
